HIERARCHY
ROOT Hips
{
    OFFSET 0.000000 0.000000 0.000000
    CHANNELS 6 Xposition Yposition Zposition Zrotation Xrotation Yrotation
    JOINT Spine
    {
        OFFSET -0.000000 14.517291 0.000000
        CHANNELS 3 Zrotation Xrotation Yrotation
        JOINT Spine1
        {
            OFFSET -0.000000 37.558300 0.000000
            CHANNELS 3 Zrotation Xrotation Yrotation
            JOINT Neck
            {
                OFFSET -0.000000 37.404057 3.400369
                CHANNELS 3 Zrotation Xrotation Yrotation
                JOINT Head
                {
                    OFFSET -0.000000 24.785618 -3.540803
                    CHANNELS 3 Zrotation Xrotation Yrotation
                    End Site
                    {
                        OFFSET -0.000000 35.408028 0.000000
                    }
                }
            }
            JOINT LeftShoulder
            {
                OFFSET 6.992933 33.973492 -0.192664
                CHANNELS 3 Zrotation Xrotation Yrotation
                JOINT LeftArm
                {
                    OFFSET 21.527611 0.000000 0.000000
                    CHANNELS 3 Zrotation Xrotation Yrotation
                    JOINT LeftForeArm
                    {
                        OFFSET 56.353916 0.000000 0.000000
                        CHANNELS 3 Zrotation Xrotation Yrotation
                        JOINT LeftHand
                        {
                            OFFSET 47.774071 0.000000 0.000000
                            CHANNELS 3 Zrotation Xrotation Yrotation
                            End Site
                            {
                                OFFSET 26.556021 0.000000 0.000000
                            }
                        }
                    }
                }
            }
            JOINT RightShoulder
            {
                OFFSET -7.065357 33.973492 -0.192664
                CHANNELS 3 Zrotation Xrotation Yrotation
                JOINT RightArm
                {
                    OFFSET -21.527611 0.000000 0.000000
                    CHANNELS 3 Zrotation Xrotation Yrotation
                    JOINT RightForeArm
                    {
                        OFFSET -56.353916 0.000000 0.000000
                        CHANNELS 3 Zrotation Xrotation Yrotation
                        JOINT RightHand
                        {
                            OFFSET -47.774071 0.000000 0.000000
                            CHANNELS 3 Zrotation Xrotation Yrotation
                            End Site
                            {
                                OFFSET -26.556021 0.000000 0.000000
                            }
                        }
                    }
                }
            }
        }
    }
    JOINT LeftUpLeg
    {
        OFFSET 17.704014 0.000000 0.000000
        CHANNELS 3 Zrotation Xrotation Yrotation
        JOINT LeftLeg
        {
            OFFSET -0.000000 -81.181816 0.000000
            CHANNELS 3 Zrotation Xrotation Yrotation
            JOINT LeftFoot
            {
                OFFSET -0.000000 -62.821102 0.000000
                CHANNELS 3 Zrotation Xrotation Yrotation
                JOINT LeftToeBase
                {
                    OFFSET -0.000000 -11.507608 26.556021
                    CHANNELS 3 Zrotation Xrotation Yrotation
                    End Site
                    {
                        OFFSET -0.000000 0.000000 7.081605
                    }
                }
            }
        }
    }
    JOINT RightUpLeg
    {
        OFFSET -17.704014 0.000000 0.000000
        CHANNELS 3 Zrotation Xrotation Yrotation
        JOINT RightLeg
        {
            OFFSET -0.000000 -81.181816 0.000000
            CHANNELS 3 Zrotation Xrotation Yrotation
            JOINT RightFoot
            {
                OFFSET -0.000000 -62.821102 0.000000
                CHANNELS 3 Zrotation Xrotation Yrotation
                JOINT RightToeBase
                {
                    OFFSET -0.000000 -11.507608 26.556021
                    CHANNELS 3 Zrotation Xrotation Yrotation
                    End Site
                    {
                        OFFSET -0.000000 0.000000 7.081605
                    }
                }
            }
        }
    }
}
MOTION
Frames:    14
Frame Time:    0.008333
-12.670760    156.778549    -45.808094    -0.334887    -2.761663    -35.436325    3.501240    1.793105    0.959620    -3.846937    3.079136    0.440150    17.428724    5.762758    15.440988    -11.949944    0.146371    12.715453    -0.120332    10.101290    -12.058722    -39.081154    5.114199    -31.506794    30.109028    -44.615105    -56.519676    -17.237883    -27.797142    -27.895384    -6.605230    4.931170    -3.260029    35.725822    10.727983    75.923508    6.390272    -7.806163    93.268188    7.627982    -13.190111    19.344044    26.016562    -19.721947    0.998071    -9.260104    11.210928    -0.423930    -23.005291    22.328583    38.865452    0.000000    0.000000    0.000000    -7.649370    2.076430    -3.778747    7.001734    30.922943    -0.656904    0.209138    -24.566828    -20.965164    0.000000    0.000000    0.000000    
-12.428288    156.578415    -45.087467    -0.425541    -2.760753    -35.605732    3.598904    1.767079    0.952422    -3.856448    3.200112    0.442317    17.391565    5.745964    15.521015    -11.935129    0.162222    12.803998    -0.130848    10.073018    -11.978539    -39.052593    5.067928    -31.550812    30.163235    -44.653690    -56.503479    -17.264357    -27.811409    -27.927610    -6.630731    4.929585    -3.233287    35.734562    10.715990    75.919197    6.357856    -7.807729    93.328094    7.677707    -13.157406    19.334618    26.119123    -19.615458    0.939482    -9.548966    11.866873    -0.462076    -23.756878    21.117256    39.234478    0.000000    0.000000    0.000000    -7.834246    2.202645    -3.839257    6.891785    31.092535    -0.483412    0.418258    -24.791542    -20.846836    0.000000    0.000000    0.000000    
-12.161364    156.375381    -44.351486    -0.500349    -2.724168    -35.780579    3.685921    1.779807    0.990905    -3.869104    3.175394    0.455201    17.481560    5.876606    15.560357    -12.067088    0.082364    12.830517    -0.125753    10.067817    -12.006762    -39.086876    4.917204    -31.508217    30.063442    -44.582172    -56.644176    -17.264389    -27.728634    -27.940033    -6.578561    4.980042    -3.226617    35.706844    10.672433    75.852554    6.321980    -7.761221    93.391914    7.639694    -13.087824    19.335012    26.220789    -19.563980    0.812645    -9.903705    12.589179    -0.438157    -24.767258    19.284632    39.800522    0.000000    0.000000    0.000000    -8.025140    2.319048    -3.916136    6.782951    31.195177    -0.355588    0.630720    -25.013071    -20.669939    0.000000    0.000000    0.000000    
-11.898941    156.168320    -43.547356    -0.591817    -2.741939    -35.957230    3.783480    1.743432    1.005120    -3.891251    3.324205    0.465692    17.514084    5.856593    15.640721    -12.133254    0.129510    12.903980    -0.136911    10.021258    -11.969568    -39.039158    4.964060    -31.498344    30.203033    -44.654938    -56.577408    -17.256109    -27.768610    -27.943235    -6.576169    4.971083    -3.226852    35.682163    10.669246    75.850655    6.279413    -7.792346    93.434067    7.689138    -13.067204    19.384783    26.260412    -19.436089    0.628815    -10.331998    13.279829    -0.313992    -25.182152    17.703264    39.974373    0.000000    0.000000    0.000000    -8.236115    2.521249    -4.001426    6.629180    31.279207    -0.238918    0.999501    -25.253550    -20.423885    0.000000    0.000000    0.000000    
-11.623255    155.967575    -42.731434    -0.656476    -2.715837    -36.133034    3.843751    1.717759    1.038578    -3.871160    3.333838    0.476725    17.540422    6.014546    15.684947    -12.195930    0.046202    12.955638    -0.150994    10.037873    -12.001639    -39.040627    4.937101    -31.443939    30.310295    -44.664837    -56.547016    -17.272491    -27.724552    -27.987038    -6.569768    5.024109    -3.200979    35.715027    10.624840    75.778839    6.238431    -7.709649    93.497726    7.612350    -12.968824    19.301888    26.291130    -19.329350    0.463038    -10.819376    13.876240    -0.024546    -25.251116    16.320734    39.984074    0.000000    0.000000    0.000000    -8.456895    2.679535    -4.030179    6.539136    31.333424    -0.108031    1.191630    -25.454918    -20.322243    0.000000    0.000000    0.000000    
-11.320470    155.777969    -41.867352    -0.718240    -2.697500    -36.302170    3.955060    1.657639    1.059206    -3.915420    3.453051    0.488723    17.575136    6.015699    15.737624    -12.250215    0.054231    13.000880    -0.152912    10.002179    -11.920691    -39.022472    5.033511    -31.523447    30.527958    -44.740444    -56.390568    -17.350332    -27.736858    -27.988932    -6.555150    5.045690    -3.220272    35.724174    10.597539    75.771606    6.197095    -7.699009    93.540901    7.705130    -12.896996    19.416855    26.267664    -19.205423    0.338576    -11.331945    14.403191    0.348426    -25.152605    14.968663    40.047676    0.000000    0.000000    0.000000    -8.685008    2.858621    -4.065599    6.391472    31.361258    0.011407    1.458086    -25.627239    -20.162630    0.000000    0.000000    0.000000    
-11.008286    155.591095    -40.959972    -0.733372    -2.701025    -36.474514    4.017157    1.601733    1.081505    -3.977414    3.496476    0.499158    17.622356    6.105514    15.774486    -12.296583    0.056720    13.043217    -0.138263    10.018864    -11.913435    -39.023922    5.066504    -31.500383    30.621370    -44.797882    -56.354084    -17.316074    -27.776457    -28.007898    -6.529419    5.050228    -3.213349    35.724934    10.622970    75.700920    6.182640    -7.666007    93.614296    7.703396    -12.861326    19.367664    26.151621    -19.056648    0.304682    -11.837101    14.853264    0.692631    -24.758564    13.502140    40.157024    0.000000    0.000000    0.000000    -8.981699    3.030656    -4.281790    6.138700    31.416866    0.393308    1.741077    -25.804575    -20.061983    0.000000    0.000000    0.000000    
-10.666178    155.430161    -40.041550    -0.705365    -2.654593    -36.600342    4.058622    1.485438    1.092008    -3.981378    3.543381    0.503202    17.613785    6.122254    15.834548    -12.276021    0.134226    13.120762    -0.164896    10.039583    -11.882140    -39.057133    5.022438    -31.544527    30.614973    -44.778717    -56.393658    -17.263868    -27.761955    -27.960457    -6.552399    5.099615    -3.225653    35.709202    10.638838    75.673279    6.090428    -7.718003    93.676109    7.704065    -12.822553    19.372309    25.977034    -18.976982    0.309343    -12.304811    15.295432    1.009367    -23.836412    12.166060    40.064323    0.000000    0.000000    0.000000    -9.265041    3.165532    -4.232142    6.000546    31.379515    0.512098    2.033499    -25.931608    -20.006910    0.000000    0.000000    0.000000    
-10.317785    155.280609    -39.084305    -0.656602    -2.658345    -36.721554    4.072446    1.415014    1.106157    -4.045919    3.575039    0.510321    17.719898    6.157510    15.874356    -12.375149    0.196573    13.150888    -0.147863    9.981234    -11.852083    -39.149685    5.028943    -31.534510    30.538637    -44.740761    -56.503727    -17.241409    -27.730642    -27.916872    -6.513055    5.102445    -3.271904    35.750340    10.670563    75.595589    6.106547    -7.658410    93.794586    7.704037    -12.795988    19.343100    25.716604    -18.847776    0.440737    -12.686816    15.775347    1.245139    -22.893764    10.921170    39.726795    0.000000    0.000000    0.000000    -9.602299    3.322492    -4.122923    5.893350    31.361004    0.617582    2.314114    -26.047117    -20.026588    0.000000    0.000000    0.000000    
-9.943728    155.163986    -38.126564    -0.566433    -2.655847    -36.835545    4.055810    1.332088    1.108409    -4.091915    3.587833    0.511814    17.751762    6.114128    15.927099    -12.358848    0.352529    13.214928    -0.175214    9.949395    -11.846709    -39.163734    5.156896    -31.497776    30.646793    -44.852154    -56.464733    -17.165241    -27.855955    -27.822969    -6.487325    5.103925    -3.256823    35.786343    10.701623    75.487808    6.029891    -7.640410    93.881210    7.740323    -12.699688    19.367144    25.394251    -18.742319    0.647837    -12.961101    16.291489    1.336848    -21.942032    9.733518    39.341000    0.000000    0.000000    0.000000    -9.976823    3.445525    -3.900139    5.868894    31.313240    0.584498    2.581473    -26.101025    -20.076826    0.000000    0.000000    0.000000    
-9.551813    155.080765    -37.186058    -0.406079    -2.634811    -36.885399    3.940772    1.249636    1.078148    -4.059864    3.534494    0.497556    17.744633    6.189558    15.961784    -12.361349    0.334078    13.261947    -0.209059    9.948528    -11.759291    -39.236279    5.162811    -31.562584    30.501310    -44.805832    -56.604824    -17.094576    -27.854193    -27.760880    -6.486007    5.148804    -3.278746    35.850685    10.700462    75.425255    6.003892    -7.579226    93.989517    7.707452    -12.630692    19.353245    25.001936    -18.722319    0.936951    -13.139935    16.841597    1.381602    -20.994724    8.741555    38.743282    0.000000    0.000000    0.000000    -10.370747    3.504760    -3.667621    5.831542    31.279118    0.476960    2.901555    -26.101912    -20.099033    0.000000    0.000000    0.000000    
-9.147082    155.019180    -36.230968    -0.257672    -2.613513    -36.927010    3.827556    1.187117    1.069421    -3.987298    3.464341    0.488713    17.742002    6.194437    15.990161    -12.401679    0.428393    13.297312    -0.287430    9.936075    -11.814888    -39.299168    5.181923    -31.494032    30.431091    -44.814999    -56.716118    -17.057222    -27.880836    -27.722198    -6.498235    5.179883    -3.291665    35.839874    10.746289    75.310814    5.905473    -7.633779    94.126007    7.776671    -12.585196    19.336834    24.606403    -18.684647    1.295113    -13.230619    17.367407    1.439994    -20.122812    7.837137    38.072365    0.000000    0.000000    0.000000    -10.752397    3.599950    -3.499290    5.754889    31.176189    0.466439    3.205694    -26.053793    -20.190212    0.000000    0.000000    0.000000    
-8.740423    154.977936    -35.302372    -0.075161    -2.576361    -36.955772    3.677092    1.106686    1.059749    -3.923668    3.435576    0.481342    17.755493    6.142737    16.032801    -12.412686    0.483187    13.336665    -0.311025    9.931058    -11.733370    -39.327435    5.287172    -31.607368    30.390657    -44.833054    -56.768757    -16.999813    -27.930695    -27.650440    -6.480687    5.205141    -3.336918    35.899487    10.726538    75.222801    5.847885    -7.572927    94.290375    7.733917    -12.492929    19.286602    24.207663    -18.677383    1.673365    -13.287763    17.795746    1.527197    -19.316460    7.128032    37.379738    0.000000    0.000000    0.000000    -11.150036    3.648085    -3.285686    5.738429    31.082457    0.388425    3.481807    -25.971092    -20.297714    0.000000    0.000000    0.000000    
-8.314237    154.930069    -34.380520    0.109884    -2.531949    -36.916241    3.502583    1.067249    1.018359    -3.797054    3.321375    0.458928    17.691082    6.151343    16.050779    -12.363587    0.480037    13.369423    -0.356682    9.957770    -11.766328    -39.382160    5.418019    -31.632198    30.541977    -44.885239    -56.706444    -16.996132    -27.939547    -27.632908    -6.489371    5.205029    -3.359936    35.999279    10.697799    75.068420    5.829349    -7.455441    94.408501    7.692670    -12.375246    19.317947    23.820757    -18.745319    1.990457    -13.399197    18.256161    1.574303    -18.526560    6.401318    36.739204    0.000000    0.000000    0.000000    -11.536721    3.727988    -3.141198    5.710607    30.938307    0.336254    3.738649    -25.895086    -20.451872    0.000000    0.000000    0.000000    
